<?xml version="1.0" encoding="UTF-8"?>
<svg width="60.387mm" height="54.466mm" version="1.1" viewBox="0 0 60.387 54.466" xmlns="http://www.w3.org/2000/svg">
 <g transform="translate(-66.66 -117.98)">
  <g fill="#fcc433">
   <path transform="scale(.26458)" d="m391.21 597.67c-7.9773-0.86175-19.515-2.7661-25.753-4.0138-13.828-2.766-19.373-4.769-26.819-10.359-5.4039-4.0569-12.202-9.9545-16.041-14.449-3.3759-3.9514-5.6928-8.1773-16.927-31.918-5.1073-10.793-5.7282-11.986-12.517-16.607-7.0034-4.7674-2.6141 1.591-8.2321-12.173-2.3532-5.7652-2.7687-11.723-2.7594-21.784l-0.678-15.253 7.092 14.294c4.8812 9.8379 5.3898 9.8681 9.7467 13.952l3.8115 3.5725 4.0457 0.7371c1.343 0.2447 6.2507 2.1572 6.6522 2.4113 0.56498 0.35745-3.156-0.0667-4.0533-0.0607-0.63766 4e-3 -2.7601 0.0175-3.4742 0.73156-1.286 1.286-1.6497 1.1826-1.4217 7.5256 0.17186 4.7815 0.83842 6.1671 1.589 8.0735 1.9064 4.8423 19.609 26.897 27.308 34.242 5.0502 4.8188 6.4872 5.5352 12.767 8.3888 2.7779 1.2624 8.3112 4.0364 11.972 5.7324 8.3463 3.8666 13.455 5.3736 18.517 6.0291 4.2795 0.55426 21.467 0.63371 32.727-0.18149 8.5247-0.61715 12.643-1.218 16.247-3.3702 1.5544-0.9284 8.0095-4.1517 13.426-7.0009 10.506-5.5259 16.095-8.753 18.853-11.335 0.9347-0.87489 3.6837-4.0277 5.1366-6.25 1.4529-2.2223 4.7804-6.537 7.0704-9.48 3.5427-4.553 3.9803-6.1586 4.9996-6.0075l4.8576 0.35997-2.0636 4.6862c-3.77 8.5615-8.7414 21.381-10.879 25.546-2.1082 4.1065-3.7245 6.1177-7.1785 9.3694-9.9395 9.3576-19.89 17.393-24.454 18.716-9.825 2.8491-32.31 6.7035-37.512 6.1415z"/>
   <path transform="scale(.26458)" d="m380.67 550.69c-3.7531-0.58314-8.5308-1.4601-22.331-8.2093-6.2002-3.0323-12.85-5.3366-13.049-5.3366-0.37417 0-14.375-14.383-21.943-22.391-4.6065-4.8739-7.2454-6.9421-12.101-8.9172-2.3643-0.96173-6.4239-3.0761-8.1476-4.7466-4.2986-4.166-9.9554-11.984-14.457-20.341-4.1573-7.7175-6.309-14.371-5.4088-14.905 1.304-0.77279 6.4404 5.6093 10.596 9.6461 9.8152 9.5353 10.765 9.6601 15.488 9.6601 3.3186 0 3.8546 0.28785 2.9278 0.93699-1.6867 1.1814-0.95548 5.5568 2.0596 11.7 3.6834 7.5046 6.3636 9.1146 18.053 16.932 19.22 12.854 21.221 13.605 35.703 17.261 14.985 3.783 18.898 3.8345 39.294 0.95311 12.749-1.8011 15.153-2.6055 24.481-7.8889 11.122-6.2995 18.953-11.419 22.084-14.667 8.3102-8.62 19.265-25.816 19.265-29.217 0-1.1615 3.5607-0.51578 4.4246 0.0181 1.4101 0.8715-1.715 21.759-4.2221 28.357-1.3689 3.6026-3.2398 6.2715-9.4166 13.967-8.5786 10.687-12.621 14.017-26.563 19.493-15.979 6.2765-25.028 8.9986-35.677 9.235-4.3162 0.0958-8.2138 0.0216-12.747-0.37121-2.4946-0.21615-6.7266-0.92377-8.3119-1.17z"/>
   <path transform="scale(.26458)" d="m359.36 642.06c-7.1734-1.6622-28.499-9.9425-39.319-15.637l-7.6081-4.0039-13.578-12.934c-7.9851-7.6061-13.786-13.156-14.381-14.329-0.56463-1.1112-3.8363-6.9104-6.5065-11.196-5.8696-9.4198-6.1472-12.172-7.888-18.043-0.74141-2.5001-2.3756-6.2747-3.086-8.497-1.1908-3.7256-1.3059-4.9077-1.4754-15.161 0 0-0.68403-9.0774 0.73125-13.219 0.51311-1.5015 2.9084-4.0808 2.9084-4.0808 0.23263-0.3014 1.5622-2.9563 3.3557-10.137 1.0384-4.1571 1.5024-4.9258 1.3112-17.001-0.15962-10.078-0.62284-13.467-1.3017-16.163-0.48024-1.9078-1.1323-5.33-0.9852-5.4771 0.19645-0.19645 5.7934-2.0956 7.8524-2.7477 0.0286-9e-3 -0.2514 4.3318-0.40627 9.654-0.20076 6.8995 0.48599 9.5405 1.9442 17.867 1.8867 10.773 2.8347 14.499 5.8206 18.419l2.8983 3.8048-5.0313 0.0831c-1.8775 0.031-6.735 2.4077-7.1513 8.0552-0.16502 2.2387 0.23274 4.0098 3.1188 12.78 4.2955 13.053 9.431 26.214 12.011 31.216 2.4352 4.7201 9.3369 13.511 15.898 20.216 3.8884 3.9737 6.552 5.8976 13.618 10.593 17.263 11.472 24.851 14.47 42.621 16.62 18.608 2.2517 28.291 2.4035 35.742 0.7015 2.0659-0.47194 8.3539-3.1218 17.993-7.9888 8.1211-4.1004 15.173-7.7362 15.323-7.8094 0.15013-0.0732 3.3853 1.1994 3.8713 1.5547 0.79853 0.58391-1.8037 1.5223-7.4756 7.6777-6.6902 7.2604-14.389 14.847-19.45 18.376-6.2286 4.3426-20.694 7.5605-37.157 7.884-8.7788 0.17251-7.454 0.48852-10.557-0.2304z"/>
  </g>
  <path transform="scale(.26458)" d="m437.82 609.19c1.0834-2.1717-0.5251-4.7276-1.83-5.7129l-3.2559-2.6563 6.3004-3.2971c9.2185-4.8242 17.52-11.421 21.552-16.499 1.2621-1.5895 3.7175-4.6514 5.02-6.8043 2.7149-4.4876 3.4119-4.6018 8.9276-2.9591 3.3366 0.99367 4.1955 1.1401 4.8649 3.3954l0.7772 2.6187-0.91744 2.8415c-0.79261 2.4548-6.6376 9.522-11.865 15.11-3.4101 3.6454-9.5633 7.6806-15.317 10.536-3.0805 1.5286-14.38 6.2076-14.987 6.2076-0.11946 0 0.31366-1.945 0.7306-2.7808z" fill="#bf8602"/>
  <g fill="#ffea5d">
   <path transform="scale(.26458)" d="m383.91 624.59c-0.31357 2e-5 -1.8214 0.0197-2.9673-0.0537-5.4265-0.34757-19-1.9579-23.833-2.7534-6.7748-1.1149-13.258-3.1096-20.108-6.5612-4.4682-2.2515-7.1656-3.7567-14.115-8.4079-2.3983-1.6052-5.5519-3.7674-6.3134-4.2648-4.0817-2.6655-9.1039-7.431-15.459-15.194-2.008-2.4528-5.7117-7.2786-6.6888-8.7455-2.3655-3.5515-7.0964-14.603-12.311-29.831-1.5606-4.5575-3.2324-10.125-4.0539-12.943-0.53738-1.8434-0.58873-2.1364-0.58623-3.3461 2e-3 -1.0539-0.0326-2.378 0.19732-3.0305 0.60501-1.7166 1.384-3.6733 3.036-4.8154 1.6189-1.1192 5.2726-1.9588 6.422-1.9531 1.9843 0.01 4.4399 0.79083 6.3132 3.2253l1.4106 1.8332 6.387 12.377 6.5449 12.409 3.7528 5.9031c5.4139 8.5159 10.571 16.127 12.715 19.351 1.6585 2.4933 2.2904 3.2404 3.5782 4.5196 2.1993 2.1847 4.8512 4.2741 10.622 8.3156 11.586 8.1144 10.721 7.5037 12.69 8.4722 3.0533 1.5018 5.6375 2.4592 11.874 4.2267 2.1154 0.59951 4.7146 1.4993 5.6603 1.8066 1.8771 0.61002 3.3109 0.85873 5.8252 1.0643 2.8347 0.23176 9.1954 0.18405 17.962 0.20202 9.5351 0.0195 9.442 0.19944 17.362-0.93216 7.0266-1.0039 19.706-3.2554 21.667-3.8327 0.37318-0.10987 0.0647 0.53194-0.0109 0.72254-0.23329 0.58844-0.3429 1.9078-0.26828 2.393 0.12087 0.78598 0.77993 1.5436 1.4724 2.059l1.4041 1.045-2.1882 0.88161c-1.7128 0.69008-6.2868 3.3772-17.429 8.8903-10.447 5.1688-10.795 5.3168-13.801 5.987-3.1873 0.71062-4.7657 0.98453-10.385 1.0228-2.8474 0.0194-4.6425-0.0429-4.9561-0.0429z"/>
   <path transform="scale(.26458)" d="m377.75 577.4c-4.8233-0.30987-10.663-2.125-19.067-5.9262-1.0417-0.47121-4.5593-2.1181-7.8168-3.6598s-6.8768-3.2212-8.043-3.7323c-2.3678-1.0377-3.7612-1.8359-5.5636-3.1872-3.7973-2.8469-9.0918-8.2278-14.625-14.864-5.7962-6.951-15.849-20.224-16.848-22.244-1.4497-2.9325-2.145-6.5775-2.1396-11.217 3e-3 -2.6802 0.17747-4.5157 0.48509-5.1067 0.64524-1.2397 2.3371-1.727 5.6141-1.617 2.2716 0.0762 2.4192 0.12025 4.7115 1.4046 3.6237 2.0303 5.9205 3.8277 7.8459 6.1399 3.924 4.7122 16.376 17.461 22.968 23.516 5.1278 4.7102 7.3924 6.3467 12.023 8.6883 9.6445 4.8774 23.643 9.0207 37.691 11.156 2.8468 0.43271 4.6254 0.57988 7.0143 0.58039 8.7654 2e-3 19.355-2.4099 31.308-7.1305 5.112-2.0188 10.735-4.53 13.637-6.0907 7.7616-4.1735 16.692-10.024 19.96-13.076 0.53572-0.50031 1.0368-0.91363 1.1135-0.91849 0.0767-5e-3 0.30994-0.0819 0.51829-0.17121 0.71468-0.30632 3.6742-1.0333 3.8005-0.55033 0.20274 0.77527 1.2542 2.9046 1.83 3.5021 0.53518 0.55525-0.8041 1.397-0.93263 1.5727-0.0837 0.11443-0.8367 1.058-1.6733 2.0968-4.425 5.4945-8.2166 10.816-10.334 14.502-2.128 3.7053-8.1527 7.6702-24.776 16.305-8.0004 4.1557-9.613 5.039-11.541 6.3216-0.81745 0.54384-1.5616 0.91845-2.336 1.176-3.8677 1.2864-11.882 2.0852-24.117 2.4038-6.5315 0.17008-18.851 0.24468-20.708 0.1254z"/>
   <path transform="scale(.26458)" d="m383.24 535.22c-3.6358-0.36568-9.0409-1.3944-14.458-2.7517-5.8858-1.4748-12.688-3.4659-14.584-4.269-3.1807-1.3472-8.7432-4.5899-16.237-9.4658-3.9573-2.5747-17.457-11.667-18.397-12.412-3.6349-2.8789-5.4991-7.9618-7.4084-13.623-0.84023-2.4915-1.584-4.8837-1.2048-5.6169 0.53716-1.0387-1.3119-2.199 2.4516-1.5537 1.5386 0.2638 9.4419 3.0829 9.7074 3.245 0.0799 0.0488 2.8953 1.3061 3.5446 1.801 3.5619 2.7148 14.291 8.7135 17.821 10.411 15.53 7.4692 26.408 11.725 32.2 12.596 2.24 0.33692 9.0284 1.1758 11.426 1.4119 3.2597 0.32107 11.856 0.32292 14.395 3e-3 4.4293-0.55806 7.7441-1.3028 13.899-3.1226 8.0286-2.3739 17.057-5.9972 20.419-8.1944 2.5517-1.6678 24.429-18.576 30.679-23.711 1.1956-0.98222 2.7366-2.7952 2.7374-2.6435 2e-3 0.41317 0.28634 1.857 0.77603 2.3254 0.55992 0.53555 2.1231-0.24942 2.0348 0.61143l0.84978 0.277-0.70312 2.02c-0.43556 1.2513-1.806 4.3982-3.9657 7.8514-3.3196 5.3079-9.8649 13.856-15.059 19.667-1.901 2.1269-3.3214 3.3082-6.9052 5.7429-6.462 4.39-21.35 13.002-24.301 14.056-5.4775 1.9577-17.3 3.8914-32.015 5.2362-2.7965 0.25558-5.8128 0.29775-7.7024 0.1077z"/>
   <path transform="scale(.26458)" d="m306.56 485.39c-1.1772-0.0908-2.0097-0.39647-3.9138-1.8364-2.5244-1.9091-6.862-5.8157-12.477-11.554-2.1774-2.2251-5.3545-4.7847-5.418-4.9241-0.0905-0.19887 0.68105-1.0508 0.98501-1.3067l0.69413-0.58447 4.8725 5.1315c8.6811 9.1424 15.764 13.493 17.977 14.162 0.31039 0.0938 3.6778 0.94409 3.2671 0.93605-0.24307-5e-3 -5.4292 0.0186-5.9866-0.0244z"/>
   <path transform="scale(.26458)" d="m301.17 502.74c-0.31252-0.23347-1.9142-1.7942-3.5594-3.4684-3.3363-3.3951-3.5776-3.7245-6.2527-8.5384-2.7961-5.0314-7.8636-15.013-7.8684-15.499-5e-3 -0.46812-1.1112-1.1113-1.4322-2.2599l-0.61543-2.2022 0.69606-0.70489c0.48018-0.48627 1.2506-1.8297 1.2803-1.8001 0.0296 0.0296 1.3356 2.4506 1.7138 3.2733 1.5636 3.4012 6.6953 15.146 8.059 17.109 3.6276 5.2219 7.1998 9.7005 10.042 12.59l2.6424 1.2884 4.1292 2.2716c0.60872 0.33487-7.495-1.6316-7.8872-1.6332-0.2312-1e-3 -0.60023-0.16705-0.94702-0.42613z"/>
   <path transform="scale(.26458)" d="m290.58 523.78c-0.789-0.57801-1.3767-0.68191-2.431-2.0866-1.0803-1.4392-3.0581-4.7992-3.7008-6.1964-1.3616-2.96-2.6368-7.4908-3.8453-15.673-0.84264-5.7051-0.82472-5.7167-1.1523-7.7934-0.42945-2.7221-0.79093-8.8516-0.38949-12.384 0.24139-2.1237-8e-3 -3.0338 0.26873-5.6316 0.057-0.53635 0.0712-1.2347 0.23688-1.3846 0.15588-0.14107 1.8072-1.6588 1.8631-1.5745 0.0478 0.0721 0.47438 2.2677 0.74865 2.5988 0.68452 0.82633 0.56919 1.3951 0.3197 4.9978-0.11423 1.6495-0.11737 3.8422-0.0643 7.6763 0.0991 7.1578 0.35233 11.865 0.87064 14.97 0.92077 5.5164 5.1028 16.714 7.7851 20.807 1.6081 2.4543 2.467 3.8544 1.4939 3.1414z"/>
  </g>
  <g fill="#eea512">
   <path transform="scale(.26458)" d="m358.49 650.34c-2.535-0.69118-8.2648-2.7253-13.091-4.696-4.8265-1.9707-12.739-5.0564-17.257-6.8571-9.1399-3.6432-12.47-5.3688-18.568-9.9541-10.598-7.9682-31.618-32.063-36.491-41.941-5.307-10.759-10.246-29.221-11.659-42.774-0.37723-3.6185-0.0976-9.7691 1.6473-12.579l4.3196-6.4292s-1.6726 9.9248-1.7054 15.155c-0.0568 9.0766-0.0229 11.672 4.3711 25.531 1.757 5.542 3.8045 10.006 6.2977 14.115 1.7582 2.8978 3.5575 6.8395 5.7446 10.451 3.8252 6.3161 4.7557 6.9431 16.553 18.733 6.7453 6.741 12.958 12.714 14.514 13.71 5.4105 3.461 25.384 12.365 40.2 17.185l7.8576 2.5565 11.35 0.48607c11.979-5e-3 17.298-0.85162 27.453-3.3986 9.1041-2.2835 11.964-4.7448 25.778-18.592 5.3475-5.3608 11.91-11.997 11.91-11.637 0 2.6133-1.6223 8.9586-24.297 28.737-8.74 7.6236-13.846 9.8522-28.428 12.039-3.7322 0.55966-9.8785 1.3527-13.768 1.4896-6.417 0.22577-7.8077 0.0153-11.99-1.1251z"/>
   <path transform="scale(.26458)" d="m373.27 606.2c-3.5936-0.49026-18.663-5.1445-21.648-6.6668-2.652-1.3522-16.502-10.812-21.064-14.518-2.8338-2.302-4.9841-4.7745-9.2075-11.179-11.254-17.065-14.323-22.401-20.5-34.22-3.534-6.7613-7.7396-14.179-9.0183-16.102-1.2787-1.923-3.2203-5.6868-3.0871-5.8201 0.13327-0.13326 4.8089 2.4168 7.1493 4.2896 2.9161 2.3335 5.2482 5.0674 6.0358 6.6249 0.63206 1.2501 4.4895 9.6995 8.8036 18.699 8.4375 17.602 9.8944 19.495 16.832 26.385 7.2289 7.1803 13.882 11.92 20 14.783 8.0908 3.7862 37.058 8.9661 49.562 8.932 9.5518-0.0261 34.669-4.8156 40.119-7.554 3.3261-1.6711 11.156-7.7029 19.16-14.74 6.7-5.8899 6.6771-6.0244 9.4607-11.394 1.5579-3.005 4.5482-9.8063 6.7995-15.269 2.2513-5.4622 4.2404-10.737 4.9559-11.51l1.7465-3.283-0.1582 4.1037c-0.13045 3.3838-0.37911 9.1008-2.0829 13.523-2.4714 6.414-9.5838 20.328-12.789 25.239-4.9924 7.649-12.401 14.353-25.852 21.806-6.7237 3.725-7.1283 3.5836-14.321 4.8947-16.287 2.969-21.077 3.4265-34.808 3.3607-7.0837-0.0339-14.422-0.15849-16.088-0.38588z"/>
   <path transform="scale(.26458)" d="m399.52 557.4c-1.1557-1e-5 -3.3289-0.59383-4.6393-0.79641-18.322-2.8325-36.532-8.9902-44.376-15.226-1.0596-0.84236-4.7028-4.1145-4.6724-4.1461 0.0109-0.0114 4.6337 1.1849 7.356 2.5504 10.784 5.4094 20.591 9.3608 23.782 10.327 1.2078 0.3658 3.7951 0.52255 5.3974 0.73707 1.9395 0.25966 5.9281 1.4582 10.37 1.1511 4.768-0.32968 6.6852-0.38003 9.3813-0.24641 3.0436 0.15086 5.0029-3e-3 8.5652-0.67258 7.6387-1.4358 19.662-5.3544 31.184-10.164 1.9618-0.81885 4.445-1.9286 5.4988-2.4574 5.1283-2.5735 9.963-6.9356 15.742-14.203 1.1183-1.4064 6.5254-8.4267 7.0488-9.1519 2.7997-3.879 5.0819-11.704 6.3668-21.83 0.38853-3.062 0.76109-7.2143 0.91136-10.157l0.0527-1.942 1.1127-0.0201c0.32561-6e-3 1.1328 0.0525 1.1573 0.0744 0.0981 0.0876 0.23538 14.387 0.12808 16.379-0.3148 5.8449-0.7371 9.6189-1.5487 12.098-0.33371 1.0194-0.44247 2.037-1.3117 3.4741-0.37128 0.61384-1.0524 1.8071-1.4056 2.5437-0.598 1.2472-0.88854 2.039-2.3602 5.8027-1.9507 4.9888-3.476 7.5974-6.6982 10.268-3.5607 2.951-10.16 7.4985-17.146 11.399-2.7908 1.5582-6.5779 3.4451-11.47 5.5156-11.269 4.7699-19.896 7.7184-29.072 8.6637-0.93077 0.0959-5.6647 0.0292-6.4376 0.0292z"/>
   <path transform="scale(.26458)" d="m266.37 528.53c-0.0341-0.2045 0.13949-1.1516 0.45333-1.7824 0.31383-0.63087 0.65064-1.4749 0.61204-1.5755-0.0412-0.10732 0.48322-0.7438 1.0156-1.4453 0.49894-0.65751 1.0868-1.4778 1.2518-1.8501 1.6065-3.6253 2.306-11.66 1.9911-23.882-0.085-3.2988-0.38457-7.0774-0.44747-8.3969s-0.0273-3.2466-0.0299-4.1732c-8e-3 -2.6815-0.36358-4.6696-1.7931-7.1742l-1.2082-2.1169 1.65 0.24554 1.7169-0.3125 0.28257 1.6119c0.58402 3.3315 1.4132 7.8322 1.6171 9.7951 0.1978 1.9042 0.54725 13.989 0.46898 18.294-0.081 4.4537-0.45874 5.3789-1.525 9.5348-1.1818 4.606-2.4622 8.4805-3.6452 10.596-0.54822 0.98031-1.0499 2.0001-1.4279 2.2648-0.27913 0.19551-0.78776 1.5356-0.84852 1.1712z"/>
  </g>
  <path transform="scale(.26458)" d="m278.43 469.4c-1.5138-1.065-1.6939-3.6294-2.1213-6.5421-0.69463-4.7334-3.4589-5.787-5.2364-6.3512-1.034-0.32819 1.4009-2.3721 2.4313-5.9412l1.0616-4.6379 2.8115 1.0742c1.1123 0.42495 2.8348 4.5012 3.4908 6.5073 1.3702 4.1903 3.9971 9.455 5.3575 11.013 0.79011 0.90507 0.10747 1.3087-1.9678 3.5714-1.3512 1.4732-3.9411 4.4736-4.034 4.4612-0.0929-0.0123-0.80607-2.4608-1.7931-3.1551z" fill="#f9c334"/>
  <path transform="scale(.26458)" d="m260.35 454.21c6.5707-5.3554 14.595-9.5984 14.595-7.9552 0 1.3928-3.0932 9.5681-4.0942 10.187-0.82607 0.51054-17.722 5.1489-18.684 5.1716-0.34946 8e-3 5.3463-5.091 8.1831-7.4031z" fill="#c38805"/>
  <path transform="scale(.26458)" d="m268.34 476.24c-0.61848-0.1385-1.4821-1.4323-1.875-1.955s-1.7857-0.71045-3.75-1.072c-2.8672-0.5277-4.6677-1.4158-6.768-3.7768-1.4389-1.6175-2.1799-4.3127-2.5742-5.4438l-1.4312-2.3243 9.218-2.6012c11.781-3.3245 12.491-3.6921 13.508-1.7904 0.46275 0.86465 1.6044 3.482 1.8276 5.7072 0.27787 2.7703 1.0706 5.1753 2.2236 6.5617 0.92613 1.1136 1.7048 2.7263 1.512 3.0382-1.0397 1.6822-7.5858 4.6206-11.891 3.6564z" fill="#704921"/>
  <g fill="#734b18">
   <path transform="scale(.26458)" d="m435.64 608.72c-1.2029-0.29216-2.7052-1.682-2.8726-1.7896-0.45511-0.29275-0.93938-0.75539-1.1377-1.1805-0.15804-0.33873-0.36567-0.88755-0.36158-1.4521 4e-3 -0.51643-0.1532-1.9227-0.0112-2.3351 0.19284-0.56009 1.4512-0.65533 1.6236-0.82771 0.40207-0.40207 1.3344 0.57581 3.4189 2.527 1.0223 0.95693 1.4302 1.4147 1.6526 1.8548 0.16626 0.32893 0.35106 1.1341 0.35106 1.5295 0 0.57719-0.0514 0.77958-0.0851 1.0229-0.0329 0.23771-0.30317 1.3371-0.46736 1.249l-0.292-0.15654z"/>
   <path transform="scale(.26458)" d="m476.24 533.67c-0.85442-0.0859-1.8449-0.24981-2.0663-0.34196-0.51704-0.21519-1.1819-1.0543-1.6971-2.142-0.23391-0.49378-0.29382-0.69361-0.32278-1.0765-0.0814-1.0757 0.42634-1.5422 1.5924-1.463 0.86207 0.0585 1.8782 0.39013 3.1437 1.026 0.89987 0.45212 1.3709 0.77669 1.9119 1.3173 0.60528 0.60493 0.81591 1.038 0.81591 1.6776 0 0.34724-0.0337 0.54085-0.12627 0.72605-0.11185 0.2237-0.15871 0.25741-0.41038 0.29521-0.39126 0.0588-2.1881 0.0469-2.841-0.0187z"/>
   <path transform="scale(.26458)" d="m477.69 481.2c-1.1508-0.26535-2.2614-0.77549-3.3114-0.71046-1.4806 0.0917-2.1511 0.065-2.588-0.10288-0.47093-0.18099-1.0132-0.70315-1.2444-1.1982-0.192-0.41119-0.36604-1.1427-0.36604-1.5386 0-0.26167-7e-3 -0.61659 0.30021-0.88696 0.62592-0.55129 1.6758-1.1576 2.4645-1.0839 0.90548 0.0845 1.917 0.62698 3.7319 1.8458 0.49553 0.3328 0.97218 0.81591 1.3542 1.0362 0.38196 0.22029 0.79584 0.57788 0.88831 0.64558l0.44794 0.32793s0.19273 0.49589 0.3029 0.82393c0.10749 0.32003 0.1173 0.81796 0.0831 0.86137-0.0926 0.11737-1.1848 0.1827-2.0632-0.0199z"/>
  </g>
 </g>
</svg>
