<?xml version="1.0" encoding="UTF-8" standalone="no"?>
<svg
   xmlns:svg="http://www.w3.org/2000/svg"
   xmlns="http://www.w3.org/2000/svg"
   xmlns:sodipodi="http://sodipodi.sourceforge.net/DTD/sodipodi-0.dtd"
   xmlns:inkscape="http://www.inkscape.org/namespaces/inkscape"
   width="115.42352mm"
   height="100.80674mm"
   viewBox="0 0 115.42352 100.80674"
   version="1.1"
   id="svg6"
   inkscape:version="1.1-dev (9f82f91, 2020-05-02)"
   sodipodi:docname="kiwi.svg">
  <defs
     id="defs2" />
  <sodipodi:namedview
     fit-margin-bottom="0"
     fit-margin-right="0"
     fit-margin-left="0"
     fit-margin-top="0"
     id="base"
     pagecolor="#ffffff"
     bordercolor="#666666"
     borderopacity="1.0"
     inkscape:pageopacity="0.0"
     inkscape:pageshadow="2"
     inkscape:zoom="0.98994949"
     inkscape:cx="375.13503"
     inkscape:cy="-0.93861281"
     inkscape:document-units="mm"
     inkscape:current-layer="layer2"
     showgrid="false"
     inkscape:snap-global="true"
     inkscape:window-width="1920"
     inkscape:window-height="1017"
     inkscape:window-x="1432"
     inkscape:window-y="-8"
     inkscape:window-maximized="1" />
  <g
     transform="translate(-46.195877,-86.941987)"
     inkscape:label="Camada 1"
     inkscape:groupmode="layer"
     id="layer1"
     style="display:none" />
  <g
     transform="translate(-46.195877,-86.941987)"
     inkscape:groupmode="layer"
     id="layer2"
     inkscape:label="SVG"
     style="display:inline">
    <path
       style="fill:#7d572e;fill-opacity:1;stroke-width:0.714286"
       d="m 264.21671,589.63818 c -29.54415,-3.36636 -55.64629,-16.6794 -72.2818,-36.86635 -8.12421,-9.85861 -10.8353,-14.71852 -14.1744,-26.67612 -1.80666,-6.46978 -3.17891,-10.50391 -3.16176,-23.87607 0.0156,-12.16039 0.26031,-15.39502 1.64489,-21.74214 8.49692,-38.9511 36.11046,-80.54368 72.90535,-109.81286 55.07782,-43.81267 117.07084,-53.96684 169.71058,-27.79781 17.29093,8.59591 31.35178,18.92125 36.38067,26.7155 4.52849,7.01865 9.93064,18.14969 12.42996,25.61166 4.03616,12.05036 4.7608,17.03373 4.7608,32.73994 0,12.33332 -0.22612,15.29546 -1.65451,21.67409 -10.47628,46.78292 -49.50635,91.16751 -104.32157,118.63342 -33.66533,16.86846 -71.84815,24.85949 -102.23821,21.39674 z"
       id="path129"
       transform="scale(0.26458333)"
       sodipodi:nodetypes="sssssssssssss" />
    <path
       style="display:inline;fill:#b1c64c;fill-opacity:1;stroke-width:0.714286"
       d="m 354.21671,676.30376 c -1.375,-0.17032 -9.34499,-1.05934 -12.4639,-1.66695 -21.06715,-4.10419 -35.38717,-21.65012 -42.6752,-46.25677 -3.31935,-11.20715 -4.98539,-33.26924 -4.98915,-49.88778 -0.005,-22.83252 12.24844,-56.90014 30.84533,-87.97874 6.394,-10.68546 11.84204,-16.88344 22.18339,-27.22752 21.45294,-21.45861 43.67136,-29.67694 67.64625,-28.52655 12.28271,0.58937 21.72533,5.62268 28.14408,9.88985 17.73155,11.78791 29.38947,31.17545 34.34,54.65192 1.0266,4.86832 1.52899,10.15531 1.51343,23.61477 -0.0212,18.37304 -2.17855,27.30526 -6.65561,44.95635 -9.40602,37.08385 -24.41843,64.13337 -44.44604,83.42341 -13.56602,13.06642 -27.94119,21.193 -45.33289,25.13758 -5.93001,1.34498 -22.65596,0.54597 -28.10969,-0.12957 z"
       id="path162"
       transform="scale(0.26458333)"
       sodipodi:nodetypes="ssscssssssssss" />
    <path
       style="display:inline;fill:#4b361d;fill-opacity:1;stroke-width:0.714286"
       d="m 218.32386,556.45772 c -5.3838,-2.29478 -6.73963,-4.51876 -10.70867,-8.8058 -6.58692,-7.11466 -11.9461,-17.66609 -11.96143,-27.44549 -0.0105,-6.66787 3.73325,-10.14539 5.90532,-11.30785 2.41245,-1.2911 6.97631,-0.99994 10.19494,0.65041 11.36247,5.82609 23.13736,24.90451 23.1685,37.53904 0.009,3.66479 -0.71138,5.58609 -3.06243,8.16733 -1.22123,1.3408 -1.8259,3.0291 -5.44646,2.9958 -2.40755,-0.0221 -6.50473,-1.11783 -8.08977,-1.79344 z"
       id="path132"
       transform="scale(0.26458333)"
       sodipodi:nodetypes="sssssssss" />
    <path
       style="display:inline;fill:#7d572e;fill-opacity:1;stroke-width:0.714286"
       d="m 432.07386,709.23904 c -20.77571,-2.09398 -52.49454,-10.31195 -77.27861,-20.02196 l -6.92146,-2.71172 h 13.35003 c 11.38085,0 14.44776,-0.24574 20.79202,-1.66599 27.93043,-6.25259 50.87375,-22.91827 68.99888,-50.11973 17.30552,-25.97143 31.03794,-66.27664 34.66336,-101.73837 1.05842,-10.35275 0.5448,-29.71795 -1.01505,-38.27123 -2.65889,-14.57978 -8.07918,-28.15811 -15.62905,-39.15222 -4.95632,-7.2174 -13.75919,-15.93681 -21.25096,-21.04949 l -6.06631,-4.13989 3.21429,0.46442 c 13.17524,1.90368 28.53896,6.28241 44.28571,12.62163 20.58201,8.28577 51.30422,24.63791 60.64111,32.27672 7.85831,6.42912 22.79594,22.2542 29.7739,31.54276 32.57364,43.35972 41.95562,89.35637 17.09491,129.6006 -5.13755,8.31662 -3.75552,8.31922 -14.21158,18.54331 -18.03189,17.63183 -31.77472,28.84476 -49.22624,37.47592 -15.82022,7.82435 -29.0824,11.56797 -48.17924,13.59995 -5.59821,0.59567 -14.75893,1.56533 -20.35714,2.1548 -9.11112,0.95937 -25.99227,1.26441 -32.67857,0.59049 z"
       id="path112"
       transform="scale(0.26458333)"
       sodipodi:nodetypes="sscssssssscssssssssss" />
    <path
       style="display:inline;fill:#99622a;fill-opacity:1;stroke-width:0.714286"
       d="m 348.15586,686.41763 c -9.91567,-3.46753 -23.65385,-8.15955 -33.8492,-17.73545 -16.80652,-15.78539 -24.50898,-39.69616 -25.55151,-79.31968 -0.40829,-15.51761 -0.38603,-15.84878 1.77808,-26.46112 4.093,-20.0712 9.31907,-34.88924 19.51203,-55.32459 7.48129,-14.99887 15.06773,-27.84088 20.46531,-34.64286 5.83894,-7.35817 19.58021,-20.78281 26.77805,-26.16103 11.52427,-8.61093 22.86636,-14.25161 35.27582,-17.54346 6.01844,-1.59651 8.57467,-1.86968 18.08084,-1.93222 16.48108,-0.10843 29.36609,1.5258 38.69954,7.78961 18.83804,12.64246 31.71106,36.15779 36.23812,61.57547 2.10261,11.80535 2.08481,32.79488 -0.0412,46.98592 -3.66878,24.48846 -13.77391,53.49077 -23.52755,72.96332 -22.44993,44.81992 -55.33321,68.37902 -96.01172,70.32357 -4.125,0.19718 -8.70212,0.44027 -12.03796,0.0909 z m 35.70371,-12.30651 c 12.39976,-3.10665 20.50829,-6.68853 30.94569,-13.66999 11.58599,-7.74974 22.4153,-19.07888 31.7558,-33.22149 13.48605,-20.41945 25.67953,-54.52737 30.25957,-84.64285 1.73322,-11.39649 1.72594,-32.7488 -0.0145,-42.5 -4.46147,-24.99678 -16.74529,-44.46646 -36.03384,-57.11317 -5.4492,-3.57281 -12.5358,-5.59832 -23.98588,-6.85569 -26.61313,-2.92249 -55.07795,10.38843 -77.94477,36.44907 -8.00501,9.12307 -9.14439,10.72837 -15.73031,22.16264 -13.72425,23.82764 -21.79628,44.28444 -26.3532,66.78644 -1.51332,7.47274 -1.82703,11.00776 -1.82653,20.58224 6.5e-4,12.62027 0.8314,23.53543 2.5923,34.0599 3.4574,20.66398 12.387,38.05934 24.3915,47.51599 6.24499,4.91954 15.3275,9.30614 21.94417,10.59843 8.98325,1.75449 9.32382,1.7779 22.14286,1.52228 9.13246,-0.18211 13.55951,-0.59707 17.85714,-1.6738 z"
       id="path114"
       transform="scale(0.26458333)"
       sodipodi:nodetypes="csssssssssssssscssssssssssssssss" />
    <path
       style="display:inline;fill:#4c4c4e;fill-opacity:1;stroke-width:0.714286"
       d="m 377.59641,499.27301 c -1.27789,-2.06767 -1.94482,-7.63841 -1.23159,-10.28716 0.84816,-3.1498 1.48486,-3.75757 3.2335,-3.08655 1.02995,0.39523 1.16761,1.16265 0.86529,4.82374 -0.38536,4.66674 -2.10251,9.78726 -2.8672,8.54997 z"
       id="path139"
       transform="scale(0.26458333)" />
    <path
       style="display:inline;fill:#4c4c4e;fill-opacity:1;stroke-width:0.714286"
       d="m 390.4057,509.67367 c -0.50383,-2.7579 1.02045,-10.9153 2.61626,-14.00126 1.6538,-3.19809 3.7467,-4.75566 5.72348,-4.25952 4.3931,1.1026 1.80337,8.91972 -6.16792,18.61792 l -1.7235,2.09688 z"
       id="path141"
       transform="scale(0.26458333)" />
    <path
       style="display:inline;fill:#4c4c4e;fill-opacity:1;stroke-width:0.714286"
       d="m 413.50243,508.16988 c 0,-4.14456 3.94266,-10.59309 6.47666,-10.59309 3.21159,0 1.62358,4.4905 -3.29514,9.31786 -3.09313,3.03568 -3.18152,3.07111 -3.18152,1.27523 z"
       id="path143"
       transform="scale(0.26458333)" />
    <path
       style="display:inline;fill:#4c4c4e;fill-opacity:1;stroke-width:0.714286"
       d="m 406.71565,528.8973 c 1.32624,-4.47587 7.50052,-11.51057 11.60958,-13.22745 2.2282,-0.931 2.60676,-0.91215 3.82507,0.1904 2.03492,1.84158 1.64975,3.57214 -1.4686,6.5984 -2.71427,2.63411 -9.29322,6.54871 -12.7855,7.60762 -1.50415,0.45608 -1.62625,0.33518 -1.18055,-1.16897 z"
       id="path145"
       transform="scale(0.26458333)" />
    <path
       style="display:inline;fill:#4c4c4e;fill-opacity:1;stroke-width:0.714286"
       d="m 377.89098,521.13618 c -1.01842,-2.92144 -1.06172,-8.91057 -0.0777,-10.74921 1.00688,-1.88137 2.70027,-1.73798 3.63229,0.30759 0.8577,1.88245 -0.14944,8.07637 -1.80227,11.08392 l -0.93519,1.7017 z"
       id="path154"
       transform="scale(0.26458333)" />
    <path
       style="display:inline;fill:#4c4c4e;fill-opacity:1;stroke-width:0.714286"
       d="m 393.90037,525.73903 c 0.81665,-3.49413 2.88205,-7.73052 4.44521,-9.11771 1.70499,-1.51305 3.96776,-1.33958 4.28907,0.3288 0.2725,1.41499 -3.67815,6.64173 -6.85616,9.07074 l -2.36679,1.80898 z"
       id="path158"
       transform="scale(0.26458333)" />
    <path
       style="display:inline;fill:#e9eac0;fill-opacity:1;stroke-width:0.505076"
       d="m 363.72298,586.40579 c -1.16887,-0.57858 -3.64502,-2.66304 -5.50255,-4.63212 -8.73447,-9.259 -10.12483,-21.31687 -4.20843,-36.49756 6.09692,-15.64388 18.18828,-26.50127 29.73912,-26.70413 5.30256,-0.0931 12.45117,4.81263 15.58749,10.69696 4.10896,7.70922 4.05232,16.73693 -0.18133,28.89991 -5.41799,15.56546 -13.37637,25.20629 -23.35059,28.28701 -4.37004,1.34977 -9.29697,1.32935 -12.08371,-0.0501 z"
       id="path165"
       transform="scale(0.26458333)" />
    <path
       style="display:inline;fill:#4c4c4e;fill-opacity:1;stroke-width:0.714286"
       d="m 364.05514,517.60301 c -2.22798,-1.75253 -4.78633,-7.5895 -5.32686,-12.15341 -0.36533,-3.08464 -0.20156,-3.67633 1.48416,-5.36204 1.04214,-1.04215 2.41572,-1.79233 3.05241,-1.66708 3.17069,0.62376 5.18029,7.87664 4.66453,16.83488 -0.23985,4.16599 -0.98701,4.61874 -3.87424,2.34765 z"
       id="path137"
       transform="scale(0.26458333)" />
    <path
       id="path137-6"
       d="m 96.006225,142.05755 c -0.58542,-0.14586 -1.551489,-0.9287 -2.011486,-1.62998 -0.310931,-0.47397 -0.323201,-0.57919 -0.111653,-0.95338 0.130788,-0.23135 0.351069,-0.43598 0.489508,-0.45471 0.68945,-0.0933 1.653258,0.95082 2.237143,2.42365 0.271501,0.68494 0.155144,0.80343 -0.603506,0.61442 z"
       style="display:inline;fill:#4c4c4e;fill-opacity:1;stroke-width:0.137853" />
    <path
       style="display:inline;fill:#4c4c4e;fill-opacity:1;stroke-width:0.12131"
       d="m 92.66191,138.50008 c -0.51377,-0.1287 -1.361603,-0.81947 -1.765301,-1.43827 -0.272877,-0.41822 -0.283646,-0.51108 -0.09799,-0.84125 0.11478,-0.20414 0.308101,-0.38471 0.429597,-0.40123 0.605069,-0.0824 1.450918,0.83899 1.963341,2.13859 0.238273,0.60439 0.136157,0.70894 -0.529643,0.54216 z"
       id="path137-6-1" />
    <path
       id="path137-6-1-1"
       d="m 92.049183,144.22936 c -0.895032,0.38016 -1.360137,0.46084 -2.815177,0.20575 -0.859259,-0.30783 -1.1607,-0.98248 -1.250582,-1.66868 -0.05558,-0.42426 0.514356,-1.05129 0.674493,-1.20961 0.797353,-0.78862 1.345551,-0.33064 3.523376,0.9967 1.012762,0.61732 1.027771,1.18317 -0.132103,1.67584 z"
       style="display:inline;fill:#4c4c4e;fill-opacity:1;stroke-width:0.222039"
       sodipodi:nodetypes="scsccss" />
    <path
       sodipodi:nodetypes="scsccss"
       style="display:inline;fill:#4c4c4e;fill-opacity:1;stroke-width:0.222039"
       d="m 107.59087,147.55999 c 0.96548,-0.11601 1.43465,-0.064 2.76119,0.58596 0.73962,0.53484 0.84136,1.26673 0.73669,1.95083 -0.0647,0.42297 -0.78664,0.86658 -0.98452,0.97407 -0.98535,0.53552 -1.38441,-0.057 -3.10671,-1.93802 -0.80092,-0.87483 -0.65783,-1.42249 0.59334,-1.57285 z"
       id="path137-6-1-1-0" />
    <path
       id="path137-1"
       d="m 104.97069,144.27138 c 0.38168,-0.45817 1.63294,-0.96525 2.60532,-1.05583 0.6572,-0.0613 0.7823,-0.024 1.13373,0.33764 0.21726,0.22356 0.37108,0.51511 0.34185,0.6479 -0.14563,0.6613 -1.69558,1.04638 -3.59774,0.89378 -0.88457,-0.071 -0.97775,-0.22978 -0.48316,-0.82349 z"
       style="display:inline;fill:#4c4c4e;fill-opacity:1;stroke-width:0.150787" />
    <path
       id="path137-6-1-1-0-1"
       d="m 110.56438,143.2953 c 0.73431,-0.24521 1.10723,-0.29255 2.23627,-0.093 0.6551,0.22552 0.84293,0.69281 0.86299,1.16442 0.0124,0.29158 -0.4837,0.71143 -0.62178,0.81716 -0.68751,0.52667 -1.08608,0.20358 -2.7059,-0.74276 -0.75328,-0.44014 -0.72318,-0.82802 0.22841,-1.14579 z"
       style="display:inline;fill:#4c4c4e;fill-opacity:1;stroke-width:0.163426"
       sodipodi:nodetypes="scsccss" />
    <path
       style="display:inline;fill:#4c4c4e;fill-opacity:1;stroke-width:0.155717"
       d="m 95.895728,152.39729 c -0.08708,0.6912 -0.825589,1.90251 -1.537677,2.52212 -0.48127,0.41881 -0.595183,0.44662 -1.032086,0.25252 -0.270123,-0.12 -0.522082,-0.34624 -0.559882,-0.50275 -0.188278,-0.77943 0.837175,-2.02223 2.38033,-2.88469 0.717649,-0.40106 0.86215,-0.28291 0.749314,0.6128 z"
       id="path137-6-4" />
    <path
       id="path137-6-4-1"
       d="m 99.901112,153.01105 c 0.236768,0.74655 0.222598,2.40437 -0.02947,3.45184 -0.170367,0.70798 -0.24171,0.80389 -0.646094,0.8695 -0.250016,0.0405 -0.532925,-0.0365 -0.628665,-0.17118 -0.47681,-0.67091 -0.266171,-2.53158 0.48901,-4.31891 0.351212,-0.83118 0.508419,-0.79865 0.815262,0.16875 z"
       style="display:inline;fill:#4c4c4e;fill-opacity:1;stroke-width:0.155358" />
    <path
       style="display:inline;fill:#4c4c4e;fill-opacity:1;stroke-width:0.208351"
       d="m 96.321212,157.31144 c 0.103933,1.04518 -0.373793,3.21664 -0.99469,4.52131 -0.419631,0.88182 -0.539805,0.9879 -1.0886,0.96201 -0.33928,-0.0163 -0.689208,-0.19544 -0.777527,-0.39873 -0.439861,-1.01241 0.351852,-3.39563 1.83779,-5.5318 0.69105,-0.99341 0.888331,-0.90717 1.023043,0.44722 z"
       id="path137-6-4-1-3" />
    <path
       style="display:inline;fill:#4c4c4e;fill-opacity:1;stroke-width:0.105724"
       d="m 97.929688,160.91677 c 0.109622,0.50339 -0.02761,1.57616 -0.285724,2.23366 -0.174447,0.44441 -0.232102,0.50058 -0.522223,0.50931 -0.179365,0.005 -0.372906,-0.0682 -0.430063,-0.1634 -0.284652,-0.47445 0.0067,-1.66222 0.676224,-2.75699 0.311393,-0.50911 0.419727,-0.47491 0.561796,0.17742 z"
       id="path137-6-4-1-2" />
    <path
       id="path137-6-4-1-2-3"
       d="m 91.230528,158.38042 c -0.08759,0.50769 -0.617911,1.45025 -1.104196,1.96255 -0.328671,0.34628 -0.403208,0.37666 -0.675345,0.27573 -0.168099,-0.0627 -0.319942,-0.20334 -0.337131,-0.31305 -0.08549,-0.54664 0.630875,-1.53785 1.662741,-2.30076 0.479892,-0.35477 0.567433,-0.28237 0.453941,0.37553 z"
       style="display:inline;fill:#4c4c4e;fill-opacity:1;stroke-width:0.105724" />
    <path
       id="path137-6-4-1-3-6"
       d="m 92.368584,152.22552 c -0.523819,0.98424 -1.813321,2.46185 -3.082621,3.22124 -0.857889,0.51328 -1.151866,0.36441 -1.586731,-0.001 -0.268672,-0.22642 -0.518006,-1.20408 -0.471957,-1.43808 0.229299,-1.16541 1.66577,-1.56392 4.128821,-2.5139 1.145445,-0.44176 1.691258,-0.54323 1.012492,0.73217 z"
       style="display:inline;fill:#4c4c4e;fill-opacity:1;stroke-width:0.217062"
       sodipodi:nodetypes="ssccsss" />
    <path
       sodipodi:nodetypes="ssccsss"
       style="display:inline;fill:#4c4c4e;fill-opacity:1;stroke-width:0.217062"
       d="m 102.97403,155.35871 c 0.66228,0.89694 1.43965,2.69745 1.57768,4.17011 0.0933,0.99535 -0.16774,1.19643 -0.68492,1.43129 -0.32012,0.14482 -1.30976,-0.0517 -1.50105,-0.19408 -0.95272,-0.70929 -0.69305,-2.17723 -0.48843,-4.8092 0.0952,-1.22398 0.23891,-1.76021 1.09711,-0.59795 z"
       id="path137-6-4-1-3-6-1" />
    <path
       id="path137-6-4-1-3-6-1-7"
       d="m 104.90111,150.41239 c 0.226,0.28889 0.38637,0.45875 0.61195,1.17066 0.22686,0.71596 0.18973,1.0224 -0.0666,1.31689 -0.15879,0.18188 -0.76822,0.26878 -0.90522,0.20853 -0.68237,-0.30013 -0.93562,-1.00989 -1.30125,-2.99999 -0.17001,-0.9255 0.46379,-1.22665 1.06006,-0.46441 z"
       style="display:inline;fill:#4c4c4e;fill-opacity:1;stroke-width:0.148899"
       sodipodi:nodetypes="ssccsss" />
    <path
       sodipodi:nodetypes="ssccsss"
       style="display:inline;fill:#4c4c4e;fill-opacity:1;stroke-width:0.113405"
       d="m 107.31102,156.02666 c 0.17213,0.22002 0.29427,0.34939 0.46608,0.89159 0.17278,0.5453 0.14451,0.77869 -0.0507,1.00298 -0.12094,0.13852 -0.5851,0.20471 -0.68944,0.15882 -0.51972,-0.22859 -0.71259,-0.76916 -0.99106,-2.28487 -0.12949,-0.70487 0.35323,-0.93423 0.80736,-0.3537 z"
       id="path137-6-4-1-3-6-1-7-0" />
    <path
       id="path137-6-4-1-3-6-1-7-0-4"
       d="m 88.238365,149.29869 c -0.284226,0.19635 -0.494168,0.27368 -1.193056,0.35273 -0.702883,0.0795 -0.979321,-0.01 -1.204874,-0.3009 -0.13921,-0.1798 -0.108735,-0.75878 -0.02816,-0.87444 0.401403,-0.57604 1.245327,-0.65599 3.150889,-0.63212 0.886165,0.0111 1.195181,0.12837 0.445276,0.64642 z"
       style="display:inline;fill:#4c4c4e;fill-opacity:1;stroke-width:0.140238"
       sodipodi:nodetypes="ssccsss" />
    <path
       sodipodi:nodetypes="ssccsss"
       style="display:inline;fill:#4c4c4e;fill-opacity:1;stroke-width:0.140238"
       d="m 93.792361,147.86688 c -0.281108,0.20078 -0.861664,0.48248 -1.560552,0.56153 -0.702883,0.0795 -0.979321,-0.01 -1.204874,-0.3009 -0.13921,-0.1798 -0.108735,-0.75878 -0.02816,-0.87444 0.401403,-0.57604 1.270383,-0.61423 3.175945,-0.59036 0.886165,0.0111 1.128491,0.12501 0.386812,0.65477 z"
       id="path137-6-4-1-3-6-1-7-0-4-0" />
    <path
       style="fill:#5c4224;fill-opacity:1;stroke-width:0.357143"
       d="m 434.44974,709.18875 c -17.62855,-1.10464 -51.6718,-9.54007 -76.07143,-18.84941 -1.57143,-0.59956 -2.6925,-1.09929 -2.49127,-1.11051 0.20123,-0.0112 2.85301,0.61709 5.89285,1.39624 38.88231,9.96607 77.40783,13.85575 104.29742,10.53025 12.6802,-1.5682 34.57094,-2.66409 48.52779,-7.88257 17.33748,-6.4825 32.15878,-15.51476 47.05773,-27.97927 11.22127,-9.38775 20.82067,-18.03737 29.20771,-29.27252 7.0162,-9.3988 17.3292,-32.03606 17.3292,-31.72005 0,1.34513 -1.92869,9.93301 -3.2483,14.46369 -2.62188,9.00184 -8.12471,19.10272 -11.33005,23.64339 -4.33726,6.14415 -13.06687,16.03849 -20.42165,22.61475 -24.29281,21.72138 -48.5923,34.52311 -74.64286,39.32419 -13.64736,2.51519 -45.04905,5.35878 -56.96429,5.15841 -1.57142,-0.0264 -4.78571,-0.16889 -7.14285,-0.31659 z"
       id="path413"
       transform="scale(0.26458333)"
       sodipodi:nodetypes="ssssscsssssssss" />
  </g>
</svg>
